<svg width="38" height="44" viewBox="0 0 38 44" fill="none" xmlns="http://www.w3.org/2000/svg">
<path d="M31.4536 23.9327L22.6754 25.5084V30.2701C22.6754 32.1575 21.1572 33.7159 19.1719 34.0622C18.8864 34.1199 18.6009 34.1488 18.3155 34.1488C15.902 34.1488 13.9556 32.3999 13.9556 30.2701V27.0668V23.2574L19.1719 22.3223V16.816V12.9027L13.9556 13.8378V8.01978L3.54242 9.87253V15.7078L0 16.3312V25.7681L3.54242 25.1274V28.9368V29.9411C3.54242 35.8457 7.92178 40.8326 13.9556 42.4948C15.3375 42.8758 16.7973 43.0662 18.3155 43.0662C18.6009 43.0662 18.8864 43.0605 19.1719 43.0489C20.3786 42.997 21.5659 42.8065 22.6754 42.4948C28.7092 40.8326 33.0885 35.8457 33.0885 29.9411V23.6556L31.4536 23.9327Z" fill="url(#paint0_linear_935_2505)"/>
<path d="M27.8921 11.4102C27.7364 11.4102 27.5807 11.416 27.425 11.4276C27.0357 11.4622 26.6529 11.5315 26.2766 11.6353C24.194 12.2414 22.6758 13.9729 22.6758 16.0335C22.6758 16.5356 22.7731 17.0031 22.9288 17.4533C23.5906 19.3234 25.5564 20.674 27.8921 20.674C28.1646 20.674 28.4371 20.6394 28.7096 20.6048C31.2009 20.2411 33.0889 18.3364 33.0889 16.0335C33.0889 13.4881 30.7533 11.4102 27.8921 11.4102Z" fill="black"/>
<path d="M36.5524 2.72014C35.7154 2.21799 34.8396 1.80241 33.9248 1.45611C32.0173 0.728857 29.9736 0.365234 27.891 0.365234C25.7889 0.365234 23.7646 0.728857 21.8572 1.45611C20.9424 1.80241 20.047 2.21799 19.2296 2.72014C19.009 2.85866 18.7949 2.99718 18.5873 3.13571C18.0617 3.48202 17.9839 4.15732 18.4121 4.5902C18.8014 4.97114 19.4631 5.02309 19.9108 4.71141C20.7802 4.13423 21.7209 3.65517 22.7331 3.27423C24.368 2.66819 26.1003 2.35651 27.891 2.35651C29.6816 2.35651 31.4139 2.66819 33.0489 3.27423C34.048 3.65517 34.9823 4.13423 35.8517 4.71141C36.3188 5.02309 36.9611 4.97114 37.3504 4.57289C37.7786 4.14 37.7007 3.48202 37.1947 3.13571C36.9871 2.98564 36.773 2.84712 36.5524 2.72014Z" fill="black"/>
<path d="M32.2108 5.07311C30.8289 4.55365 29.3885 4.29391 27.8898 4.29391C26.3911 4.29391 24.9313 4.55365 23.5688 5.07311C22.8552 5.33861 22.1804 5.6676 21.5446 6.06009C20.9996 6.38908 20.9218 7.0817 21.35 7.53191C21.7392 7.89553 22.3621 7.96479 22.8292 7.68774C23.3353 7.37606 23.8738 7.11056 24.4447 6.89123C25.5347 6.47566 26.6831 6.26788 27.8898 6.26788C29.0771 6.26788 30.2449 6.47566 31.3349 6.89123C31.9059 7.09902 32.4444 7.35875 32.9504 7.67043C33.3981 7.96479 34.0404 7.89552 34.4102 7.51458C34.8579 7.0817 34.7606 6.38908 34.2156 6.06009C33.5797 5.6676 32.9115 5.33861 32.2108 5.07311Z" fill="black"/>
<path d="M30.4781 8.67452C29.6607 8.36284 28.7848 8.207 27.8894 8.207C26.9941 8.207 26.1182 8.36284 25.2813 8.67452C25.0477 8.76687 24.8206 8.87076 24.6001 8.9862C23.9967 9.28056 23.8604 10.0251 24.3276 10.4926C24.6779 10.839 25.2424 10.9255 25.69 10.7004C26.3518 10.3714 27.1109 10.1983 27.8894 10.1983C28.668 10.1983 29.4076 10.3714 30.0694 10.7004C30.5171 10.9255 31.101 10.839 31.4319 10.4926C31.9185 10.0251 31.7822 9.28056 31.1594 8.96888C30.9388 8.86499 30.7117 8.76687 30.4781 8.67452Z" fill="black"/>
<defs>
<linearGradient id="paint0_linear_935_2505" x1="15.7955" y1="59.3171" x2="-15.343" y2="31.1848" gradientUnits="userSpaceOnUse">
<stop stop-color="#007CC2"/>
<stop offset="1" stop-color="#038CCF"/>
</linearGradient>
</defs>
</svg>
